<?xml version="1.0" encoding="UTF-8"?>
<svg version="1.1" viewBox="0 0 2000 1128" width="500" height="282" xmlns="http://www.w3.org/2000/svg">
<path transform="translate(848,198)" d="m0 0h17l12 2 10 4 11 7 10 8 9 8 9 11 13 17 11 19 8 16 8 21 7 2 5-2 8-7 24-24 14-11 15-10 16-9 14-5 9-2h20l10 3 9 6 6 7 5 10 3 12v15l-4 9-7 7-8 4-10 2 3 6 3 3 35 1h164l62-1h97l63 1 2 1v100l-1 1h-13v-88l-408 1-3 19-5 15-7 11-8 8-8 4-5 1h-18l-13-5-13-9-10-8-13-11-10-9-11-9-8-7h-2l5 12 9 20 6 18 4 18 3 20 1 15v16l-2 12-4 12-5 8 16-3h24l16 4 16 8 11 8 11 10 10 13 10 19 8 24 2 12 1 12v13l-2 19-5 17-6 16-9 16-12 14-12 11-13 8-13 5-13 3h-27l-15-4-14-7-12-9-14-14-10-15-10-21-5-17-2-13v-33l3-17 5-15 8-16 9-14 12-14 8-7 7-8 10-19 5-15 1-6v-26l-3-20-12-42-6-17-4-8h-4l-4 8-7 19-3 12-1 7v26l4 16 7 16 8 13 1 5-3 2-7-1-7-7-6-10-5-13-3-14-1-21 1-19 4-16 11-25v-2l-20 8-32 15-16 8-13 4-4 1h-12l-10-3-9-7-7-10-6-15-99-1h-70l-140 1v87h-12l-1-1v-100l4-1h316l2-13 5-11-3 1-13-3-8-6-4-5-3-8v-27l4-15 6-12 8-11 9-10 9-6 8-3zm7 7-10 2-12 7-10 10-7 11-6 13-3 9-1 6v15l2 7 5 6 8 3 65 2 21 4 24 7 16 6 11 5-2-6-15-29-12-20-11-15-9-11-11-12-15-11-15-7zm231 47-13 3-20 9-19 12-16 13-10 9-8 7-13 11-4 4 16-2 89-6 15-2 9-4 7-8 1-4v-8l-3-12-5-10-5-6-6-4-8-2zm-241 51-6 2-5 6-3 9-1 8 6 1h55l54-1 8-1-2-2-28-11-15-5-17-4-15-2zm211 21v2h9v-2zm14 0-1 2 24-1v-1zm-153 17-84 1-1 2 7 12 10 10 10 2 10-2 13-5 36-17 2-1v-2zm74 1 5 5 18 13 11 8 15 11 14 8 7 3h11l8-4 7-8 7-16 4-15v-5zm19 155-15 4-11 6-11 9-10 10-10 15-8 16-4 10-5 25-1 18 2 17 5 21 8 19 10 16 11 13 11 9 15 8 11 3 7 1h11l14-3 14-7 13-10 7-7 10-14 8-15 6-16 4-21 1-11v-14l-3-22-5-17-10-21-10-14-14-14-13-8-14-5-5-1z" fill="#131214"/>
<path transform="translate(505,441)" d="m0 0h10l8 3 6 5 7 10 7 15 4 15 2 18v13l-3 26-5 19-8 16-8 11-12 12-1 16-3 19-5 18-4 10v5l17 16 11 10 13 10 16 8 5 1h13l10-3 7-5 6-10 3-8-1-7-8-13-4-12-2-17 1-20 3-17 6-15 9-16 9-10 9-8 11-5 4-1h18l8 3 7 6 4 8 1 3v18l-4 15-6 14-12 18-9 10-14 11-11 5-7 1 4 11 6 10 7 7 11 5 13 1 9-2 11-6 11-11 9-15 8-16 4-6 5-1 1 1-1 13-4 13-6 10-8 10-7 7-9 6-10 4-12 2h-13l-15-3-13-5-1 9-6 10-5 6-12 8-11 3-7 1h-14l-13-3-12-6-13-10-12-11-9-9-8-10-3-1-2 4-9 8-8 4-9 2h-15l-13-4-10-9-6-9-3-13 1-11 4-8 7-6 8-3h15l13 4 14 8 9 7 4-21 3-23 1-4h-13l-13-5-9-8-5-8-5-14-1-6v-17l1-4 4-1 4 2 1 17 3 14 6 12 4 2 5 4 13 3h4l1-22 1-88 1-19 3-16 5-12zm11 10-1 53-1 86 5-5 9-16 5-13 3-12 3-24v-10l-2-17-4-17-5-12-8-10zm127 105-8 4-8 9-8 17-6 20-3 17-1 10v9l2 13 5-1 12-9 8-9 8-14 6-16 3-13 1-8v-15l-2-8-3-5zm-206 92-8 4-4 5-1 2v13l5 8 5 5 5 4 9 3h8l9-3 8-6 6-9-2-4-10-10-10-7-9-4-4-1z" fill="#0F0E10"/>
<path transform="translate(500,745)" d="m0 0h13l1 1v47l-1 41h785l177-1h42l-1-86 1-2h13l1 1v99l-2 1-554-1h-127l-346 1-2-1z" fill="#070608"/>
<path transform="translate(750,492)" d="m0 0h79l16 4 11 6 9 7 8 11 5 12 2 11v10l-2 12-5 12-9 11-11 8-7 3 7 3 12 6 9 7 7 7 6 11 4 11 1 6v17l-2 10-4 10-9 12-9 8-10 6-9 3-14 2h-76l-9-1v-4l2-1 14-2 3-1 1-4v-203l-7-2-12-2-1-1zm56 5-16 2-5 3-1 1-1 38v57l4 1h28l16-1 9-4 10-7 7-7 7-11 3-9 1-7-1-16-5-13-9-12-10-8-12-5-4-1zm-22 106-1 1v86l1 17 4 4 14 2h27l12-2 14-7 10-9 6-7 5-10 3-11v-17l-4-14-6-10-9-10-11-7-7-3-13-2-29-1z" fill="#1B1A1C"/>
<path transform="translate(1448,492)" d="m0 0h124v21l-4-2-9-12-4-1h-74l1 91h73l4-1 2-5 2-2h3v23l-5-2-3-5-9-1h-67v116h81l7-3 12-13 4-1 1 5-6 10-5 7-4 1h-123l-2-3 2-3 18-2v-210l-13-1-6-2z" fill="#212022"/>
<path transform="translate(1232,491)" d="m0 0 186 1v21h-4l-8-11-5-4h-69v212l19 2 3 3-1 3h-54l-2-1 1-4 1-1 18-2 1-179 1-34-70 1-5 3-8 11-3 2-1-1-1-21z" fill="#232224"/>
<path transform="translate(1146,492)" d="m0 0h55l1 4-9 3-12 3-1 58v46l1 100 1 3 13 3 7 2v4h-55l-1-5 2-1 15-2 3-3v-204l-7-3-13-3z" fill="#1B1A1C"/>
<path transform="translate(1517,745)" d="m0 0h13l1 1v99l-2 1-554-1h-127l-346 1-2-1 1-2h1027l-1-96-10-1z" fill="#FEFEFE"/>
<path transform="translate(1172,437)" d="m0 0 5 1 28 28 6 5 2 5h-6l-15-9-17-12-8 4-11 8-13 8-7 1 1-4 12-11 12-12 7-8 4-2z" fill="#252426"/>
<path transform="translate(1060,502)" d="m0 0 6 2 10 8 10 9 10 13 10 19 8 24 2 12 1 12v13l-2 19-5 17-6 16-9 16-12 14-12 11-13 8-13 5-13 3h-27l-15-4-14-7-12-9-3-4 4 2 11 8 12 6 13 4 6 1h24l15-4 10-4 15-10 16-16 10-15 8-17 6-21 3-16v-21l-4-21-7-21-10-19-10-13-3-3v-2l-4-2-7-6-9-6z" fill="#FEFEFE"/>
<path transform="translate(1316,340)" d="m0 0h163l38 1v1l-408 1-3 19-5 15-7 11-8 8-8 4-5 1h-18v-1l14-1 10-3 9-6 7-10 5-12 3-11 2-14 1-2z" fill="#FEFEFE"/>
<path transform="translate(1015,495)" d="m0 0h10l12 2 12 5 3 3-18-6-5-1h-19l-15 4-11 6-11 9-9 9-10 15-8 16-4 10-5 25-1 18 2 17 5 21 8 19 10 16 11 13 10 8 15 8 6 2-4 1-14-6-11-8-13-13-9-13-8-15-5-14-4-16-2-12v-23l3-17 5-18 7-16 7-11 8-11 11-11 16-10 14-5z" fill="#FEFEFE"/>
<path transform="translate(1352,495)" d="m0 0h42l10 2 4 4-1 2-6-5h-69v211h-2l-1-2v-211z" fill="#FEFEFE"/>
<path transform="translate(861,607)" d="m0 0 5 2 8 6 7 7 6 11 4 11 1 6v17l-2 10-4 10-9 12-9 8-10 6-9 3-14 2h-76l-9-1v-4l2 2h87l12-3 13-7 9-7 8-10 5-11 3-13v-12l-4-16-5-10-9-11-10-7z" fill="#FEFEFE"/>
<path transform="translate(1071,319)" d="m0 0h19l3 5-23 1h23v2h-82v-2l39-5zm-15 5v2h9v-2z" fill="#FEFEFE"/>
<path transform="translate(1198,492)" d="m0 0 4 1-1 4-17 4-3 1-1 58v46l1 103-2-1-1-4v-175l1-28 9-4 10-3z" fill="#FEFEFE"/>
<path transform="translate(973,341)" d="m0 0 2 2 5 12 9 20 6 18 4 18 3 20 1 15v16l-2 12-4 12-5 9-4 1 7-15 4-16v-34l-5-28-5-17-5-15-11-25z" fill="#FEFEFE"/>
<path transform="translate(664,554)" d="m0 0 4 2 6 8 2 6v18l-4 15-6 14-12 18-9 10-14 11-11 5-7 1 4 11 6 10 7 7 11 5-4 1-9-5-5-4-7-10-4-9-1-5 2-3 11-4 10-6 13-11 8-11 8-13 5-11 3-9 2-11v-12l-4-11z" fill="#FEFEFE"/>
<path transform="translate(793,496)" d="m0 0h33l12 4 5 3-2 1-10-4-4-1-21-1-16 2-5 3-2 95 26 1v1h-26l-2-3v-93l5-5z" fill="#FEFEFE"/>
<path transform="translate(530,452)" d="m0 0 5 5 8 17 4 15 2 18v13l-3 26-5 19-8 16-8 11-10 10-3 1 2-4 10-10 8-13 6-12 5-20 3-20v-18l-5-29-5-13-6-10z" fill="#FEFEFE"/>
<path transform="translate(958,344)" d="m0 0h5l-5 10-7 19-3 12-1 7v26l4 16 7 16 8 13 1 5-3 2-7-1-3-4 4 2 6 1-2-6-8-14-6-13-4-15v-33l5-21 6-15z" fill="#FEFEFE"/>
<path transform="translate(511,341)" d="m0 0h142v1l-140 1v87h-12l4-2h6z" fill="#FEFEFE"/>
<path transform="translate(1585,695)" d="m0 0 2 1-1 6-9 14-5 2h-123l-2-3 2-2v2h123l3-1 5-10 4-7-2-1z" fill="#FEFEFE"/>
<path transform="translate(1525,328)" d="m0 0 6 1v100l-1 1h-13v-2h11v-99z" fill="#FEFEFE"/>
<path transform="translate(1083,251)" d="m0 0h10v1l-16 3-16 6-18 10-14 10-11 9-10 9-8 7-13 11-5 3-1-3 10-8 13-12 11-9 15-12 15-10 21-11 10-3z" fill="#FEFEFE"/>
<path transform="translate(514,451)" d="m0 0h2v53l-1 78-1 7-2-2 1-94z" fill="#FEFEFE"/>
<path transform="translate(839,495)" d="m0 0 6 1 11 6 9 7 8 11 5 12 2 11v10l-2 12-5 12-9 11-11 8-10 4 2-4 10-5 10-9 7-10 3-8 1-10v-15l-2-10-5-10-6-8-8-7-16-8z" fill="#FEFEFE"/>
<path transform="translate(708,639)" d="m0 0 4 1-1 13-4 13-6 10-8 10-7 7-9 6-10 4-12 2h-13l-15-3-3-2 10 1 4 1h19l15-4 11-7 12-12 6-9 6-16 1-6z" fill="#FEFEFE"/>
<path transform="translate(853,204)" d="m0 0 4 1-12 3-12 7-9 9-7 11-6 13-3 9-1 6v15l2 7 4 6-4-2-4-5-1-3v-24l4-13 6-12 10-13 8-7 14-7z" fill="#FEFEFE"/>
<path transform="translate(511,603)" d="m0 0 2 1-1 16-3 19-5 18-4 10v5l17 16 11 10 13 10-2 1-16-12-17-16-10-10v-5l3-5 8-27z" fill="#FEFEFE"/>
<path transform="translate(899,213)" d="m0 0 4 2 11 9 10 11 15 20 11 19 8 16 8 21 2 4-5-4-8-19-9-19-12-20-9-12-12-14-9-9z" fill="#FEFEFE"/>
<path transform="translate(945,341)" d="m0 0h6l-3 2-26 11-23 11-16 8-13 4-4 1h-12l-10-3-9-7v-3l7 6 9 4h12l16-4 20-9 16-8 26-12z" fill="#FEFEFE"/>
<path transform="translate(1114,251)" d="m0 0 4 2 7 9 4 10 2 9v15l-4 9-7 7-8 4-10 2 3 6 3 4-4-1-6-9 2-2 15-5 8-7 4-7v-18l-4-13-5-9z" fill="#FEFEFE"/>
<path transform="translate(500,745)" d="m0 0h13l1 1v47l-1 41-2-1v-87h-10v6h-1z" fill="#FEFEFE"/>
<path transform="translate(641,555)" d="m0 0 4 1-10 5-8 10-7 15-6 20-3 17-1 10v9l2 14-4-2v-37l3-10 3-14 7-18 7-10 5-6z" fill="#FEFEFE"/>
<path transform="translate(781,604)" d="m0 0h2l1 86 1 19-3-2-1-3z" fill="#FEFEFE"/>
<path transform="translate(613,696)" d="m0 0 4 1h-3l-1 9-6 10-5 6-12 8-11 3-7 1h-14l-13-3-12-6-4-4 5 2 13 6 8 2h19l11-3 12-6 3-3h2l2-4 6-10z" fill="#FEFEFE"/>
<path transform="translate(1253,495)" d="m0 0h51l15 1v1l-70 1-5 3-8 11-3 2-1-4 4-4 7-8 3-2z" fill="#FEFEFE"/>
<path transform="translate(844,302)" d="m0 0h34l16 2 7 2v1l-10-1-15-2h-31l-6 2-4 5-3 9-2 8h-2v-10l4-9 4-5z" fill="#FEFEFE"/>
<path transform="translate(487,683)" d="m0 0 3 1h-2l-2 4-9 8-8 4-9 2h-15l-13-4-6-5h3l7 4 6 2h16l10-2 9-5z" fill="#FEFEFE"/>
<path transform="translate(1346,712)" d="m0 0 7 1 1 4-1 1h-54l-2-1v-3l3 1 49 1v-3z" fill="#FEFEFE"/>
<path transform="translate(435,647)" d="m0 0h9v1l-10 2-6 4-3 5v13l5 8 5 5 8 5-3 1-8-5-7-8-3-7-1-10 2-7 6-5z" fill="#FEFEFE"/>
<path transform="translate(1146,713)" d="m0 0 1 2h50v-2l5 1v4h-55z" fill="#FEFEFE"/>
<path transform="translate(1173,452)" d="m0 0 2 2-13 9-17 11-4 2h-5l1-3 6-2 16-10z" fill="#FEFEFE"/>
<path transform="translate(452,548)" d="m0 0 3 1 1 17 3 14 6 12 4 2 5 5-5-2-6-5-6-10-2-5-3-27z" fill="#FEFEFE"/>
<path transform="translate(1014,360)" d="m0 0 4 2 11 8 14 10 13 7-3 1-16-9-13-10-10-8z" fill="#FEFEFE"/>
<path transform="translate(1563,581)" d="m0 0h3v23l-5-2v-3l2 1v-15l-2-2z" fill="#FEFEFE"/>
<path transform="translate(1403,492)" d="m0 0h15v21h-4l-1-2h3v-18h-13z" fill="#FEFEFE"/>
<path transform="translate(1568,492)" d="m0 0h4v21l-4-2-1-3h3v-15z" fill="#FEFEFE"/>
<path transform="translate(750,494)" d="m0 0 12 3 4 3-15-2z" fill="#FEFEFE"/>
<path transform="translate(1146,494)" d="m0 0 13 4v1l-11-1-2-1z" fill="#FEFEFE"/>
<path transform="translate(1205,467)" d="m0 0 4 2 4 6v1h-6l2-2z" fill="#FEFEFE"/>
</svg>
