<?xml version="1.0" standalone="no"?>
<!DOCTYPE svg PUBLIC "-//W3C//DTD SVG 20010904//EN"
 "http://www.w3.org/TR/2001/REC-SVG-20010904/DTD/svg10.dtd">
<svg version="1.0" xmlns="http://www.w3.org/2000/svg"
 width="299.000000pt" height="167.000000pt" viewBox="0 0 299.000000 167.000000"
 preserveAspectRatio="xMidYMid meet">
<metadata>
Created by potrace 1.10, written by Peter Selinger 2001-2011
</metadata>
<g transform="translate(0.000000,167.000000) scale(0.100000,-0.100000)"
fill="#000000" stroke="none">
<path d="M1040 1612 c-75 -75 -79 -197 -7 -216 20 -5 23 -11 19 -36 l-4 -30
-404 0 -404 0 0 -125 c0 -104 2 -125 15 -125 12 0 15 19 15 110 l0 110 390 0
390 0 6 -25 c8 -33 49 -65 83 -65 14 0 70 21 123 47 54 25 101 43 105 40 4 -4
-1 -24 -11 -45 -37 -76 -30 -200 13 -254 28 -34 35 -16 11 25 -31 52 -37 135
-15 208 13 41 23 59 33 57 22 -4 63 -141 69 -229 6 -88 -12 -136 -78 -204
-156 -163 -91 -461 111 -506 67 -15 126 6 186 66 114 114 119 303 10 432 -43
51 -107 77 -176 70 l-58 -5 14 34 c27 65 9 215 -38 307 -11 22 -17 41 -14 44
3 3 29 -16 58 -42 72 -65 136 -105 169 -105 42 0 79 38 94 95 l12 50 514 0
514 0 0 -108 c0 -79 3 -107 13 -107 9 0 12 32 12 125 l0 125 -532 2 c-414 2
-532 6 -536 16 -2 6 3 12 12 12 26 0 56 38 56 70 0 38 -24 86 -49 100 -52 27
-146 -4 -239 -80 -54 -45 -109 -112 -65 -80 11 8 47 36 79 63 72 58 132 87
179 87 29 0 39 -6 55 -32 27 -44 26 -84 -2 -102 -28 -16 -280 -40 -331 -31
-32 6 -38 13 -58 62 -29 72 -98 165 -150 203 -35 25 -52 30 -97 30 -50 0 -58
-3 -92 -38z m161 0 c53 -34 94 -83 149 -181 39 -69 46 -96 18 -73 -33 26 -152
52 -241 52 -70 0 -95 4 -109 17 -38 34 -14 128 47 182 45 39 77 40 136 3z m5
-222 c33 -5 87 -21 120 -34 l59 -25 -162 -1 c-170 0 -181 3 -150 42 23 29 45
32 133 18z m519 -50 c4 -6 -32 -10 -102 -9 -74 1 -97 4 -73 9 53 11 168 11
175 0z m-435 -45 c0 -10 -131 -65 -153 -65 -24 0 -67 37 -67 57 0 10 25 13
110 13 61 0 110 -2 110 -5z m450 -4 c0 -22 -25 -78 -44 -99 -30 -33 -62 -24
-157 45 -44 31 -79 58 -79 60 0 1 63 3 140 3 77 0 140 -4 140 -9z m-147 -390
c14 -5 41 -24 62 -42 174 -153 90 -499 -122 -499 -60 0 -101 25 -150 88 -104
137 -61 372 82 446 34 18 91 21 128 7z"/>
<path d="M248 1033 c-9 -12 -14 -66 -16 -197 -2 -100 -7 -184 -11 -189 -12
-12 -67 12 -80 36 -6 12 -12 37 -13 55 -3 46 -18 52 -18 7 0 -66 39 -115 91
-115 21 0 22 -3 15 -62 -3 -34 -8 -63 -10 -66 -3 -2 -19 6 -35 18 -71 50 -141
32 -141 -37 0 -72 92 -111 153 -63 33 26 34 26 65 -12 39 -46 110 -88 150 -88
49 0 98 27 112 61 11 25 16 28 39 21 14 -4 47 -7 73 -7 38 0 53 6 78 30 35 33
48 54 60 96 13 43 -4 35 -26 -12 -30 -68 -68 -99 -119 -99 -36 0 -48 5 -69 31
-34 40 -33 51 7 70 42 21 105 104 115 154 29 135 -110 144 -181 11 -29 -55
-31 -177 -4 -218 11 -16 16 -35 12 -47 -9 -29 -53 -61 -84 -61 -32 0 -103 44
-149 92 l-32 34 15 43 c8 24 15 58 15 75 0 21 13 49 39 83 65 86 77 231 27
318 -25 45 -58 61 -78 38z m67 -53 c29 -51 28 -188 -4 -252 -12 -27 -27 -48
-32 -48 -5 0 -9 75 -9 171 0 183 5 197 45 129z m309 -236 c19 -50 -17 -168
-65 -209 -47 -39 -53 -34 -46 49 5 71 23 122 55 159 19 21 48 22 56 1z m-471
-239 c42 -29 46 -47 15 -69 -43 -30 -101 -15 -118 30 -24 62 36 84 103 39z"/>
<path d="M1870 1003 c-37 -38 -40 -43 -15 -28 17 10 39 24 49 31 16 11 25 9
62 -17 60 -41 65 -36 14 16 -24 25 -49 45 -55 44 -5 0 -30 -21 -55 -46z"/>
<path d="M893 908 l27 -10 -2 -261 -3 -261 -25 -7 c-14 -4 28 -7 94 -8 134 -1
177 13 211 72 40 68 9 168 -62 202 l-36 17 25 16 c55 33 75 120 43 182 -27 52
-79 70 -197 69 -82 0 -97 -3 -75 -11z m192 -12 c68 -29 95 -118 55 -183 -27
-44 -68 -63 -140 -63 l-60 0 0 120 c0 103 2 120 18 129 25 15 87 13 127 -3z
m43 -276 c59 -36 80 -126 42 -187 -29 -49 -68 -64 -153 -61 l-72 3 -3 133 -3
132 78 0 c61 0 85 -5 111 -20z"/>
<path d="M1883 907 l27 -11 -2 -260 -3 -260 -25 -7 c-15 -4 2 -7 45 -7 39 1
58 3 43 5 l-28 4 0 244 c0 134 -3 250 -6 259 -4 11 4 20 27 31 34 14 34 14
-36 14 -61 -1 -67 -3 -42 -12z"/>
<path d="M2070 893 l0 -27 16 22 c14 20 23 22 110 22 l94 0 -2 -267 -3 -267
-25 -7 c-15 -4 2 -7 45 -7 45 0 59 3 40 7 l-30 6 -3 268 -2 267 94 0 c87 0 96
-2 110 -22 l16 -22 0 27 0 27 -230 0 -230 0 0 -27z"/>
<path d="M2633 908 l27 -10 0 -263 0 -264 -27 -4 c-16 -2 45 -5 134 -6 151 -1
163 0 173 18 16 31 12 37 -10 13 -19 -20 -31 -22 -130 -22 l-110 0 0 146 0
145 105 -3 c96 -3 105 -1 105 15 0 11 -5 15 -11 11 -6 -4 -54 -8 -105 -8 l-94
-2 0 118 0 118 100 0 c80 0 102 -3 106 -15 9 -22 24 -18 24 5 0 19 -6 20 -157
19 -118 0 -151 -3 -130 -11z"/>
<path d="M246 283 c-3 -3 -6 -60 -6 -125 l0 -118 1285 0 1285 0 0 125 c0 95
-3 123 -12 120 -9 -4 -13 -36 -13 -113 l0 -107 -1257 -3 -1258 -2 0 109 c0
100 -6 131 -24 114z"/>
</g>
</svg>
